<svg xmlns="http://www.w3.org/2000/svg" width="1200" height="630" viewBox="0 0 1200 630">
  <defs>
    <pattern id="grid" width="60" height="60" patternUnits="userSpaceOnUse">
      <path d="M60 0H0V60" fill="none" stroke="#e9e9e9" stroke-width="1"/>
    </pattern>
    <style>
      text {
        font-family: "JetBrains Mono", "SFMono-Regular", Menlo, Consolas, monospace;
        fill: #000;
        letter-spacing: 5px;
      }
      .muted { fill: #7a7a7a; letter-spacing: 4px; }
      .pink { fill: #ff3eb5; }
      .small { font-size: 18px; }
      .tiny { font-size: 14px; letter-spacing: 3px; }
      .title { font-size: 52px; font-weight: 700; letter-spacing: 11px; }
      .label { font-size: 15px; letter-spacing: 5px; text-transform: uppercase; }
    </style>
  </defs>
  <rect width="1200" height="630" fill="#fff"/>
  <rect width="1200" height="630" fill="url(#grid)"/>
  <rect x="40" y="40" width="1120" height="550" fill="rgba(255,255,255,0.92)" stroke="#000" stroke-width="1"/>

  <rect x="78" y="74" width="64" height="64" fill="#000"/>
  <image x="78" y="74" width="64" height="64" href="aim-logo.png"/>
  <rect x="78" y="74" width="64" height="64" fill="none" stroke="#000" stroke-width="1"/>

  <text x="160" y="108" class="title">aim harassment pulse</text>
  <text x="166" y="145" class="muted tiny">AI MINDSET · ENCRYPTED LEDGER · LATEST FIRST</text>

  <g transform="translate(78 196)">
    <rect width="330" height="188" fill="#fff" stroke="#000" stroke-width="1"/>
    <text x="24" y="38" class="label muted">timeline</text>
    <text x="246" y="38" class="label pink">fig. 1b</text>
    <line x1="24" y1="64" x2="306" y2="64" stroke="#000" stroke-width="1"/>
    <rect x="24" y="90" width="58" height="52" fill="#ff3eb5"/>
    <text x="36" y="112" class="tiny" fill="#fff">05-11</text>
    <text x="37" y="132" class="tiny" fill="#fff">now</text>
    <rect x="98" y="91" width="196" height="14" fill="#000"/>
    <rect x="98" y="120" width="148" height="14" fill="#ff3eb5"/>
    <rect x="98" y="149" width="172" height="14" fill="#000"/>
    <rect x="24" y="170" width="270" height="1" fill="#d9d9d9"/>
  </g>

  <g transform="translate(435 196)">
    <rect width="330" height="188" fill="#fff" stroke="#000" stroke-width="1"/>
    <text x="24" y="38" class="label muted">period graph</text>
    <text x="214" y="38" class="label pink">all</text>
    <g transform="translate(26 76)">
      <text x="0" y="6" class="tiny muted">mar</text>
      <rect x="62" y="-6" width="178" height="12" fill="#000"/>
      <rect x="62" y="7" width="112" height="4" fill="#ff3eb5"/>
      <text x="260" y="6" class="tiny muted">H</text>
    </g>
    <g transform="translate(26 120)">
      <text x="0" y="6" class="tiny muted">apr</text>
      <rect x="62" y="-6" width="244" height="12" fill="#ff3eb5"/>
      <rect x="62" y="7" width="188" height="4" fill="#000"/>
      <text x="260" y="6" class="tiny muted">H</text>
    </g>
    <g transform="translate(26 164)">
      <text x="0" y="6" class="tiny muted">may</text>
      <rect x="62" y="-6" width="214" height="12" fill="#000"/>
      <rect x="62" y="7" width="210" height="4" fill="#ff3eb5"/>
      <text x="260" y="6" class="tiny muted">H</text>
    </g>
  </g>

  <g transform="translate(792 196)">
    <rect width="330" height="188" fill="#fff" stroke="#000" stroke-width="1"/>
    <text x="24" y="38" class="label muted">private unlock</text>
    <text x="236" y="38" class="label pink">secure</text>
    <rect x="24" y="82" width="282" height="58" fill="#fff" stroke="#ff3eb5" stroke-width="3"/>
    <text x="45" y="119" class="small muted">passphrase only</text>
    <rect x="24" y="164" width="96" height="28" fill="#ff3eb5"/>
    <text x="42" y="184" class="tiny" fill="#fff">unlock</text>
    <text x="138" y="184" class="tiny muted">encrypted only</text>
  </g>

  <text x="78" y="492" class="small">telegram api · reaction scoring · private unlock</text>
  <text x="78" y="532" class="muted tiny">public preview shows cover only. history opens after passphrase.</text>
  <text x="990" y="544" class="pink tiny">b/w + pink · v0.8</text>
</svg>
